<svg xmlns="http://www.w3.org/2000/svg" viewBox="273 -8136.703 35.103 35.103">
  <defs>
    <style>
      .cls-1 {
        fill: #ba0031;
      }

      .cls-2 {
        fill: #fff;
      }
    </style>
  </defs>
  <g id="Group_2212" data-name="Group 2212" transform="translate(-356 -12310)">
    <rect id="Rectangle_1133" data-name="Rectangle 1133" class="cls-1" width="35.103" height="35.103" transform="translate(629 4173.297)"/>
    <path id="Path_525" data-name="Path 525" class="cls-2" d="M18.1,9.967a2.664,2.664,0,0,1,.514.417,4.5,4.5,0,0,1,.546.706,5.032,5.032,0,0,1,.449.931,4.679,4.679,0,0,1,.161,1.22,3.321,3.321,0,0,1-.578,2.055c-.193.257-.385.482-.578.706-.225.225-.449.417-.706.642a3.066,3.066,0,0,0-.385.514,1.21,1.21,0,0,0-.225.674.8.8,0,0,0,.225.61c.128.161.257.289.353.417l.8.674a7.828,7.828,0,0,1,1.348,1.38A3.739,3.739,0,0,1,20.6,22.9a4.075,4.075,0,0,1-1.541,3.114,6.977,6.977,0,0,1-4.623,1.445,5.734,5.734,0,0,1-3.788-1.091A2.9,2.9,0,0,1,9.4,24.028a3.143,3.143,0,0,1,.417-1.477,3.459,3.459,0,0,1,1.445-1.445,7.632,7.632,0,0,1,2.472-.9c.867-.128,1.573-.193,2.119-.225a5.653,5.653,0,0,1-.449-.738,1.629,1.629,0,0,1-.225-.9,1.383,1.383,0,0,1,.1-.546c.064-.161.1-.289.161-.417a6.72,6.72,0,0,1-.77.032,3.6,3.6,0,0,1-2.921-1.22,3.621,3.621,0,0,1-1.059-2.568,4.388,4.388,0,0,1,1.509-3.21,4.969,4.969,0,0,1,2.119-1.091A9.563,9.563,0,0,1,16.366,9.1h4.815L19.7,9.967H18.1Zm.931,13.868a2.282,2.282,0,0,0-.61-1.605,14.263,14.263,0,0,0-1.99-1.573c-.161,0-.321-.032-.546-.032-.128,0-.449,0-.931.032a9.618,9.618,0,0,0-1.541.353,5.066,5.066,0,0,0-.514.225,2.739,2.739,0,0,0-.674.449,2.684,2.684,0,0,0-.578.738,2.037,2.037,0,0,0-.257,1.091A2.48,2.48,0,0,0,12.546,25.6a4.917,4.917,0,0,0,2.986.835,4.318,4.318,0,0,0,2.6-.738A2.238,2.238,0,0,0,19.031,23.835ZM15.66,16.773a2.288,2.288,0,0,0,1.573-.674,2.87,2.87,0,0,0,.385-.931c.032-.321.064-.578.064-.8a6.541,6.541,0,0,0-.738-2.889,3.1,3.1,0,0,0-.9-1.124A2.319,2.319,0,0,0,14.729,9.9a2.131,2.131,0,0,0-1.637.8,2.948,2.948,0,0,0-.514,1.8,5.791,5.791,0,0,0,.77,2.729,4.065,4.065,0,0,0,.963,1.124A2.476,2.476,0,0,0,15.66,16.773Z" transform="translate(628.074 4172.567)"/>
    <path id="Path_526" data-name="Path 526" class="cls-2" d="M52.792,11.936H50.256V9.4h-1.22v2.536H46.5v1.22h2.536v2.536h1.22V13.156h2.536Z" transform="translate(602.884 4172.363)"/>
  </g>
</svg>
