<svg xmlns="http://www.w3.org/2000/svg" viewBox="344 -8136.703 35.103 35.103">
  <defs>
    <style>
      .cls-1 {
        fill: #ba0031;
      }

      .cls-2 {
        fill: #fff;
      }
    </style>
  </defs>
  <g id="Group_2213" data-name="Group 2213" transform="translate(-356 -12310)">
    <rect id="Rectangle_1132" data-name="Rectangle 1132" class="cls-1" width="35.103" height="35.103" transform="translate(700 4173.297)"/>
    <path id="Path_523" data-name="Path 523" class="cls-2" d="M12.305,17.868h3.6v11.6h-3.6ZM14.1,12.1A2.1,2.1,0,1,1,12,14.2a2.137,2.137,0,0,1,2.1-2.1" transform="translate(696.825 4170.015)"/>
    <path id="Path_524" data-name="Path 524" class="cls-2" d="M30.2,28.571h3.461v1.595h.034A3.783,3.783,0,0,1,37.122,28.3c3.631,0,4.309,2.409,4.309,5.531v6.345h-3.6V34.51c0-1.357-.034-3.088-1.866-3.088-1.866,0-2.172,1.459-2.172,2.986v5.734H30.2Z" transform="translate(684.8 4159.312)"/>
  </g>
</svg>
