<svg xmlns="http://www.w3.org/2000/svg" viewBox="-7963.423 -12296 95.005 79.104">
  <defs>
    <style>
      .cls-1 {
        fill: #ba0031;
      }

      .cls-2 {
        fill: #fff;
      }
    </style>
  </defs>
  <g id="Group_2209" data-name="Group 2209" transform="translate(-8004 -12310)">
    <path id="Path_292" data-name="Path 292" class="cls-1" d="M27.867,55.735A27.867,27.867,0,1,0,0,27.867,27.867,27.867,0,0,0,27.867,55.735" transform="translate(40.577 14)"/>
    <path id="Path_293" data-name="Path 293" class="cls-2" d="M58.025,35a1.812,1.812,0,0,0,.051-2.659L43.452,16.9a1.812,1.812,0,0,0-2.659-.051l-5.522,5.216a1.812,1.812,0,0,0-.051,2.659l3.068,3.221a1.872,1.872,0,0,1-.051,2.659L23,45.073a1.812,1.812,0,0,0-.051,2.659l3.324,3.477a1.812,1.812,0,0,0,2.659.051L44.117,36.841a1.872,1.872,0,0,1,2.659.051l3.068,3.221a1.812,1.812,0,0,0,2.659.051Z" transform="translate(29.645 6.049)"/>
    <path id="Path_294" data-name="Path 294" d="M137.47,123.625V114.83c0-3.682-3.068-5.062-5.625-5.062a10.027,10.027,0,0,0-4.244,1.074v-.409a.472.472,0,0,0-.46-.511h-.2a.47.47,0,0,0-.46.511v13.192a.55.55,0,0,0,.511.511h.153a.55.55,0,0,0,.511-.511V111.916a10.4,10.4,0,0,1,4.193-1.074c1.994,0,4.5,1.023,4.5,4.04v8.795a.5.5,0,0,0,.46.511h.2a.6.6,0,0,0,.46-.562m-15.9-1.739a12.229,12.229,0,0,1-5.471,1.329c-1.585,0-2.863-.767-2.863-3.221v-.358c0-2.25,2.3-3.068,6.34-3.068h2.045v5.318Zm1.176,1.687v-8.948c0-2.863-.92-4.858-4.5-4.858a39.343,39.343,0,0,0-4.7.256c-.409.051-.614.153-.614.46v.153c0,.409.358.409.614.409a40.666,40.666,0,0,1,4.7-.256c2.557,0,3.324,1.074,3.324,3.835v.972h-2.045c-4.806,0-7.465,1.329-7.465,4.091v.358c0,3.324,2.045,4.244,4.039,4.244a13.44,13.44,0,0,0,5.42-1.329v.665a.512.512,0,0,0,.511.511h.153a.567.567,0,0,0,.562-.562m-15.033-1.687a12.229,12.229,0,0,1-5.471,1.329c-1.585,0-2.863-.767-2.863-3.221v-.358c0-2.25,2.3-3.068,6.34-3.068h2.045v5.318Zm1.125,1.687v-8.948c0-2.863-.92-4.858-4.5-4.858a39.343,39.343,0,0,0-4.7.256c-.409.051-.614.153-.614.46v.153c0,.409.358.409.614.409a40.666,40.666,0,0,1,4.7-.256c2.557,0,3.324,1.074,3.324,3.835v.972h-2.045c-4.806,0-7.465,1.329-7.465,4.091v.358c0,3.324,2.045,4.244,4.04,4.244a13.44,13.44,0,0,0,5.42-1.329v.665a.512.512,0,0,0,.511.511h.153a.536.536,0,0,0,.562-.562m-13.039.2v-.153c0-.256-.153-.358-.562-.358H93.956c-1.176,0-2.761-.256-2.761-1.841V111h4.091c.307,0,.511-.153.511-.409v-.256c0-.256-.2-.409-.511-.409H91.2v-2.71a.465.465,0,0,0-.409-.511h-.307a.47.47,0,0,0-.46.511v2.71H87.411c-.307,0-.511.153-.511.409v.256c0,.256.2.409.511.409h2.608v10.431c0,2.3,2.045,2.863,3.937,2.863a11.668,11.668,0,0,0,1.381-.1c.358-.051.46-.2.46-.409" transform="translate(-1.889 -38.141)"/>
    <g id="Group_1331" data-name="Group 1331" transform="translate(87.824 88.91)">
      <path id="Path_295" data-name="Path 295" d="M95.877,150.128h0l.869-3.528h.409l-1.074,4.04h-.409l-.92-3.579h0l-.92,3.579h-.409L92.4,146.6h.307l.869,3.528h0l.92-3.528h.409Z" transform="translate(-92.4 -146.549)"/>
      <path id="Path_296" data-name="Path 296" d="M102.5,148.6a3.974,3.974,0,0,1,.1-.818,2.755,2.755,0,0,1,.358-.665,1.6,1.6,0,0,1,.562-.46,2.12,2.12,0,0,1,.818-.153,1.947,1.947,0,0,1,.818.153,1.4,1.4,0,0,1,.614.46,2.755,2.755,0,0,1,.358.665,2.252,2.252,0,0,1,.1.818,3.974,3.974,0,0,1-.1.818,2.755,2.755,0,0,1-.358.665,1.4,1.4,0,0,1-.614.46,2.258,2.258,0,0,1-1.636,0,1.764,1.764,0,0,1-.614-.46,2.755,2.755,0,0,1-.358-.665A4.133,4.133,0,0,1,102.5,148.6Zm1.892,1.79a1.279,1.279,0,0,0,.665-.153,1.207,1.207,0,0,0,.46-.409,1.89,1.89,0,0,0,.256-.562,2.993,2.993,0,0,0,.1-.665,3.947,3.947,0,0,0-.1-.767,1.219,1.219,0,0,0-.307-.562,2.809,2.809,0,0,0-.46-.358,1.3,1.3,0,0,0-.614-.1,1.415,1.415,0,0,0-.665.153,1.207,1.207,0,0,0-.46.409,1.89,1.89,0,0,0-.256.562,2.993,2.993,0,0,0-.1.665,2.591,2.591,0,0,0,.1.665,1.89,1.89,0,0,0,.256.562,1.207,1.207,0,0,0,.46.409C103.881,150.386,104.085,150.386,104.392,150.386Z" transform="translate(-97.336 -146.5)"/>
      <path id="Path_297" data-name="Path 297" d="M111.758,148.9v1.841H111.4V146.7h1.585a1.88,1.88,0,0,1,1.023.256.9.9,0,0,1,.358.818,1.09,1.09,0,0,1-.153.614,1.011,1.011,0,0,1-.511.358.511.511,0,0,1,.256.2c.051.1.1.153.153.256a.649.649,0,0,1,.051.307v.665a.383.383,0,0,0,.051.256c0,.051.051.1.051.153s.051.051.051.1v.051h-.409c-.051-.051-.051-.153-.1-.256,0-.1-.051-.256-.051-.358v-.358a.649.649,0,0,0-.051-.307.391.391,0,0,0-.1-.256.706.706,0,0,0-.2-.153.383.383,0,0,0-.256-.051h-1.381Zm1.176-.358a1.126,1.126,0,0,0,.409-.051l.307-.153a.511.511,0,0,0,.2-.256.678.678,0,0,0,0-.716.9.9,0,0,0-.2-.256.727.727,0,0,0-.307-.1c-.1,0-.256-.051-.358-.051h-1.227v1.534h1.176Z" transform="translate(-101.685 -146.598)"/>
      <path id="Path_298" data-name="Path 298" d="M118.6,150.74V146.7h.358v3.733h2.148v.307H118.6Z" transform="translate(-105.203 -146.598)"/>
      <path id="Path_299" data-name="Path 299" d="M124.7,150.74V146.7h1.687a.649.649,0,0,1,.307.051.727.727,0,0,1,.307.1l.307.153a.687.687,0,0,1,.307.358,1.816,1.816,0,0,1,.2.46,1.493,1.493,0,0,1,.1.46c0,.153.051.307.051.46v.409a1.2,1.2,0,0,1-.1.409,2.493,2.493,0,0,1-.153.358,1.554,1.554,0,0,1-.256.358,1.356,1.356,0,0,1-.307.256,2.493,2.493,0,0,1-.358.153.87.87,0,0,1-.358.051H124.7Zm.409-.358h.92a1.74,1.74,0,0,0,.511-.051.825.825,0,0,0,.46-.153.524.524,0,0,0,.307-.256,1.281,1.281,0,0,0,.2-.358,1.2,1.2,0,0,0,.1-.409c0-.153.051-.307.051-.409a1.415,1.415,0,0,0-.051-.46.963.963,0,0,0-.1-.409.824.824,0,0,0-.2-.358,2.225,2.225,0,0,0-.358-.307.963.963,0,0,0-.409-.1c-.153,0-.307-.051-.511-.051h-.92Z" transform="translate(-108.184 -146.598)"/>
      <path id="Path_300" data-name="Path 300" d="M135.528,150.128h0l.869-3.528h.409l-1.074,4.04h-.409l-.92-3.579h0l-.92,3.579h-.46L132,146.6h.358l.869,3.528h0l.92-3.528h.409Z" transform="translate(-111.751 -146.549)"/>
      <path id="Path_301" data-name="Path 301" d="M142.7,150.74V146.7h.358v4.039Z" transform="translate(-116.98 -146.598)"/>
      <path id="Path_302" data-name="Path 302" d="M145.5,150.74V146.7h1.687a.649.649,0,0,1,.307.051.727.727,0,0,1,.307.1l.307.153a.687.687,0,0,1,.307.358,1.817,1.817,0,0,1,.2.46,1.493,1.493,0,0,1,.1.46c0,.153.051.307.051.46v.409a1.2,1.2,0,0,1-.1.409,2.493,2.493,0,0,1-.153.358,1.553,1.553,0,0,1-.256.358,1.356,1.356,0,0,1-.307.256,2.492,2.492,0,0,1-.358.153.87.87,0,0,1-.358.051H145.5Zm.358-.358h.92a1.269,1.269,0,0,0,.46-.051.825.825,0,0,0,.46-.153.524.524,0,0,0,.307-.256,1.282,1.282,0,0,0,.2-.358,1.2,1.2,0,0,0,.1-.409c0-.153.051-.307.051-.409a1.416,1.416,0,0,0-.051-.46.963.963,0,0,0-.1-.409.824.824,0,0,0-.2-.358,2.225,2.225,0,0,0-.358-.307.963.963,0,0,0-.409-.1c-.153,0-.307-.051-.511-.051h-.92v3.324Z" transform="translate(-118.348 -146.598)"/>
      <path id="Path_303" data-name="Path 303" d="M153.4,150.74V146.7h2.71v.307h-2.3v1.483h2.1v.307h-2.1v1.585h2.352v.307H153.4Z" transform="translate(-122.209 -146.598)"/>
    </g>
  </g>
</svg>
