<svg xmlns="http://www.w3.org/2000/svg" viewBox="415 -8136.703 35.103 35.103">
  <defs>
    <style>
      .cls-1 {
        fill: #ba0031;
      }

      .cls-2 {
        fill: #fff;
      }
    </style>
  </defs>
  <g id="Group_2214" data-name="Group 2214" transform="translate(-356 -12310)">
    <rect id="Rectangle_1134" data-name="Rectangle 1134" class="cls-1" width="35.103" height="35.103" transform="translate(771 4173.297)"/>
    <path id="Path_527" data-name="Path 527" class="cls-2" d="M29.078,18.8a6.231,6.231,0,0,1-1.929.523,3.337,3.337,0,0,0,1.471-1.863,6.991,6.991,0,0,1-2.125.817A3.412,3.412,0,0,0,24.044,17.2a3.362,3.362,0,0,0-3.367,3.367,2.786,2.786,0,0,0,.1.752,9.371,9.371,0,0,1-6.93-3.531,3.306,3.306,0,0,0-.458,1.7,3.369,3.369,0,0,0,1.5,2.811,3.479,3.479,0,0,1-1.536-.425v.033a3.369,3.369,0,0,0,2.713,3.3,4.115,4.115,0,0,1-.883.131,3.621,3.621,0,0,1-.621-.065A3.378,3.378,0,0,0,17.7,27.628a6.688,6.688,0,0,1-4.184,1.438c-.262,0-.556-.033-.817-.033a9.648,9.648,0,0,0,5.165,1.5,9.5,9.5,0,0,0,9.578-9.578v-.425A6.9,6.9,0,0,0,29.078,18.8Z" transform="translate(767.686 4166.933)"/>
  </g>
</svg>
